<svg height="24" width="24" viewBox="0 0 24 24" xmlns="http://www.w3.org/2000/svg" class=" text-current" role="img" aria-hidden="false" aria-labelledby=":r189:_title "><title id=":r189:_title">Email</title><path fill="currentColor" d="M2.383 6.1c-.208.43-.297.893-.34 1.419C2 8.049 2 8.705 2 9.518v4.964c0 .813 0 1.469.043 2 .045.546.14 1.026.366 1.47a3.75 3.75 0 0 0 1.639 1.64c.444.226.924.32 1.47.365.531.043 1.187.043 2 .043h8.964c.813 0 1.469 0 2-.043.546-.045 1.026-.14 1.47-.366a3.75 3.75 0 0 0 1.64-1.639c.226-.444.32-.924.365-1.47.043-.531.043-1.187.043-2V9.518c0-.813 0-1.469-.043-2-.043-.525-.132-.988-.34-1.418l-7.242 5.926a3.75 3.75 0 0 1-4.75 0z"></path><path fill="currentColor" d="M20.701 4.912a3.8 3.8 0 0 0-.748-.503c-.445-.227-.925-.321-1.471-.366C17.95 4 17.295 4 16.482 4H7.518c-.813 0-1.469 0-2 .043-.546.045-1.026.14-1.47.366a3.8 3.8 0 0 0-.75.503l7.277 5.953a2.25 2.25 0 0 0 2.85 0z"></path></svg>