<svg height="24" width="24" viewBox="0 0 24 24" xmlns="http://www.w3.org/2000/svg" class=" text-current" role="img" aria-hidden="false" aria-labelledby=":r179:_title "><title id=":r179:_title">Soundcloud</title><path fill="currentColor" d="M18.884 11.539A3.015 3.015 0 0 1 23 14.252a2.97 2.97 0 0 1-2.96 2.96h-8.177c-.184-.027-.33-.183-.33-.357v-9.35c0-.183.055-.275.274-.357a5.225 5.225 0 0 1 7.077 4.39M1.128 13.225a.382.382 0 0 1 .513-.353.37.37 0 0 1 .239.344l.12 1.31-.12 1.303a.39.39 0 0 1-.376.375.385.385 0 0 1-.376-.366L1 14.518l.128-1.302zm1.88-1.512a.39.39 0 0 0-.376.376l-.129 2.438.129 2.31c0 .202.174.367.366.367a.38.38 0 0 0 .385-.367l.129-2.31-.129-2.438c0-.193-.183-.367-.376-.367zm1.127.907a.39.39 0 0 1 .376-.376.39.39 0 0 1 .376.376l.128 1.907-.128 2.31a.38.38 0 0 1-.376.367.385.385 0 0 1-.376-.367l-.128-2.31zm1.88-2.41a.38.38 0 0 0-.367.375l-.138 3.942.128 2.31c0 .192.184.367.376.367a.38.38 0 0 0 .376-.367l.128-2.31-.128-3.942a.374.374 0 0 0-.367-.366zm1.136-.606a.38.38 0 0 1 .367-.366c.21 0 .385.174.385.366l.119 4.923-.12 2.31c0 .192-.183.367-.375.367a.385.385 0 0 1-.376-.367l-.128-2.31zm1.879.156a.39.39 0 0 0-.376.376l-.128 4.39.128 2.31c0 .203.174.368.367.368.21 0 .385-.165.385-.367l.119-2.31-.12-4.39a.367.367 0 0 0-.375-.377m1.128-1.155c0-.201.174-.376.366-.376.211 0 .385.184.385.376l.128 5.922-.128 2.31a.38.38 0 0 1-.376.367.385.385 0 0 1-.375-.367l-.129-2.31z"></path></svg>