<svg height="24" width="24" viewBox="0 0 24 24" xmlns="http://www.w3.org/2000/svg" class=" text-current" role="img" aria-hidden="false" aria-labelledby=":r1ad:_title "><title id=":r1ad:_title">Website</title><path fill="currentColor" fill-rule="evenodd" d="M12 2C6.477 2 2 6.477 2 12s4.477 10 10 10 10-4.477 10-10S17.523 2 12 2M8.886 4.089A8.53 8.53 0 0 0 4.37 8.25h2.979c.225-1.157.553-2.21.964-3.104.17-.37.362-.726.573-1.057M3.5 12c0-.779.105-1.533.301-2.25h3.32a20.8 20.8 0 0 0 .001 4.5H3.8A8.5 8.5 0 0 1 3.5 12m.87 3.75a8.53 8.53 0 0 0 4.516 4.162 9 9 0 0 1-.573-1.058c-.41-.895-.739-1.947-.964-3.104zm4.51 0c.2.935.472 1.773.796 2.478.745 1.62 1.621 2.272 2.324 2.272s1.58-.652 2.324-2.272c.324-.705.595-1.543.796-2.478zm7.771 0c-.225 1.157-.553 2.21-.964 3.104-.17.37-.362.726-.573 1.058a8.53 8.53 0 0 0 4.516-4.162zm3.548-1.5h-3.32c.08-.725.121-1.478.121-2.25s-.042-1.525-.122-2.25H20.2a8.5 8.5 0 0 1 .3 2.25 8.5 8.5 0 0 1-.301 2.25m-4.83 0H8.631A19 19 0 0 1 8.5 12c0-.78.046-1.535.132-2.25h6.736c.086.715.132 1.47.132 2.25s-.046 1.535-.132 2.25m1.282-6h2.98a8.53 8.53 0 0 0-4.517-4.161c.211.33.402.687.573 1.057.41.895.739 1.947.964 3.104M9.676 5.772A12 12 0 0 0 8.88 8.25h6.24c-.2-.935-.472-1.773-.796-2.478C13.579 4.152 12.703 3.5 12 3.5s-1.58.652-2.324 2.272"></path></svg>